<svg id="visual" viewBox="0 0 900 600" width="900" height="600" xmlns="http://www.w3.org/2000/svg" xmlns:xlink="http://www.w3.org/1999/xlink" version="1.1"><path d="M0 169L82 151L164 265L245 223L327 181L409 151L491 121L573 199L655 223L736 97L818 121L900 217L900 0L818 0L736 0L655 0L573 0L491 0L409 0L327 0L245 0L164 0L82 0L0 0Z" fill="#767371"></path><path d="M0 223L82 217L164 343L245 313L327 229L409 199L491 163L573 253L655 307L736 175L818 169L900 289L900 215L818 119L736 95L655 221L573 197L491 119L409 149L327 179L245 221L164 263L82 149L0 167Z" fill="#5f5855"></path><path d="M0 289L82 289L164 379L245 355L327 313L409 283L491 217L573 355L655 367L736 271L818 247L900 343L900 287L818 167L736 173L655 305L573 251L491 161L409 197L327 227L245 311L164 341L82 215L0 221Z" fill="#493e3b"></path><path d="M0 439L82 409L164 511L245 463L327 367L409 379L491 367L573 463L655 433L736 415L818 385L900 433L900 341L818 245L736 269L655 365L573 353L491 215L409 281L327 311L245 353L164 377L82 287L0 287Z" fill="#342624"></path><path d="M0 601L82 601L164 601L245 601L327 601L409 601L491 601L573 601L655 601L736 601L818 601L900 601L900 431L818 383L736 413L655 431L573 461L491 365L409 377L327 365L245 461L164 509L82 407L0 437Z" fill="#200e0e"></path></svg>